<svg xmlns="http://www.w3.org/2000/svg" xml:space="preserve" style="fill-rule:evenodd;clip-rule:evenodd;stroke-linejoin:round;stroke-miterlimit:2" viewBox="0 0 1358 758"><path d="M676 291c25 8 25 13 29 10 9-7 23-16 26-16 3 2 27 24 25 27-1 4-7 11-7 12l-8 12c-4 5 2 5 9 29 2 5 4 3 15 7 7 1 18 1 19 6 0 7 2 36-2 37-27 6-29 4-31 11l-10 23c-4 6 18 26 15 31-1 0-23 26-27 24-3 0-25-17-28-16-2 1-1 2-24 11-7 2-5 5-9 23-1 4-1 10-5 10-19 2-35 1-36-2-2-5-5-28-9-30-2-1-2 1-24-10-5-3-6-1-20 8-4 2-10 8-14 5-2-1-25-22-24-26 1-3 18-24 17-28-4-6-7-10-12-25-1-5-31-7-32-10s-2-36 2-39c2-2 29-5 31-8 1-4 1-7 8-20 3-6 4-6 1-12-15-22-15-22-15-25 1 0 23-26 28-25 8 4 23 18 27 16 7-2 6-5 26-11 2 0 3 0 7-17 3-12 1-15 6-16 17-1 34 0 35 2l4 19c2 8 0 10 7 13Zm42 114c0-3 3-25-9-47a76 76 0 0 0-26-25c-74-40-137 44-97 102a72 72 0 0 0 132-30Z" style="fill:#f8705f;stroke:#000;stroke-width:3.02px" transform="scale(1.33)"/><path d="M676 291c25 8 25 13 29 10 9-7 23-16 26-16 3 2 27 24 25 27-1 4-7 11-7 12l-8 12c-4 5 2 5 9 29 2 5 4 3 15 7 7 1 18 1 19 6 0 7 2 36-2 37-27 6-29 4-31 11l-10 23c-4 6 18 26 15 31-1 0-23 26-27 24-3 0-25-17-28-16-2 1-1 2-24 11-7 2-5 5-9 23-1 4-1 10-5 10-19 2-35 1-36-2-2-5-5-28-9-30-2-1-2 1-24-10-5-3-6-1-20 8-4 2-10 8-14 5-2-1-25-22-24-26 1-3 18-24 17-28-4-6-7-10-12-25-1-5-31-7-32-10s-2-36 2-39c2-2 29-5 31-8 1-4 1-7 8-20 3-6 4-6 1-12-15-22-15-22-15-25 1 0 23-26 28-25 8 4 23 18 27 16 7-2 6-5 26-11 2 0 3 0 7-17 3-12 1-15 6-16 17-1 34 0 35 2l4 19c2 8 0 10 7 13Zm-29 31c-3 1-22 2-35 9-2 2-15 9-22 19-44 57 10 129 70 117 60-13 74-83 43-118-23-25-43-26-56-27Z" style="fill:#5b48c2;stroke:#000;stroke-width:3.02px" transform="translate(-369)scale(1.33)"/><path d="m481 65 5-27c1-3 9-2 11-2 27-1 28-1 28 2 5 16 5 29 10 31 10 2 10 2 24 10 5 2 6 0 23-10 6-4 6-8 12-3 6 4 5 5 10 10 2 0 9 7 12 13q3-2-5 10l-6 9c-5 7-6 8-2 15 7 14 7 18 9 22 1 3 26 6 31 8 3 2 2 32 1 38l-15 3c-14 4-16 3-18 7-4 13-5 12-10 25-2 5 11 19 15 28 2 4-22 26-24 27-6 2-25-18-31-15l-25 11c-8 2-4 8-10 31-1 3-32 3-39 1-2-1-4-22-6-28-1-6-10-4-27-14-6-4-12 4-28 13-6 3-7-1-13-5-19-18-17-21-16-23 12-19 18-22 15-28-8-12-9-21-11-25-1-2-16-3-29-7-2 0-4-2-4-16 0-20 1-23 6-24 19-5 25-3 28-9 3-11 3-11 10-25 3-4-13-21-16-27-1-5 26-28 26-28 2 0 22 13 23 15 7 4 7 0 20-5 8-4 14-3 16-8Zm32 36c-5 0-35-2-57 20-42 41-18 104 25 119 82 27 136-81 63-129-15-9-31-10-31-10Z" style="fill:#0763a9;stroke:#000;stroke-width:3.02px" transform="scale(1.33)"/><path d="M316 389c1 0 23-41 28-41 4 0 46-1 52 1 4 1 3 2 18 28 11 18 12 19 8 25l-4 7-16 28c-3 1-1 6-9 6h-53c-3-2-20-34-20-35-4-6-9-13-4-19Zm71-23-18-10c-2-1-33 18-34 20-2 1-2 38 0 39 1 2 32 20 34 20 2 1 33-18 34-20 2-2 1-2 1-34 0-6-1-6-14-13z" style="fill:#4b30bb;stroke:#000;stroke-width:3.02px" transform="scale(1.33)"/><path d="m463 209-1-7c0-69 0-69 2-71 2-4 3-3 63-3 17 0 23-3 23 11v70c-1 8-4 6-54 6-29 0-30 1-33-6Z" style="fill:#0769b0;stroke:#000;stroke-width:3.02px" transform="scale(1.33)"/><path d="m644 416-24 30c-3 4-14 3-5-8 16-21 25-32 16-26-2 2-27 18-31 18 0 0-13-3 2-12 29-16 32-17 29-18s-3 1-39-2c-11-1-6-8-3-8 17 0 16 1 40 4 12 1-33-23-34-28 0-4 3-10 11-4 1 2 23 17 26 18 5 4-4-9-10-20-5-8-13-18-3-22 6-3 8 4 19 24 9 16 7 17 9 17 5 3-1-53 13-41 6 5-7 45-1 39 10-11 20-30 26-28 9 2 2 11 1 12l-19 24c0 3 2 2 20-3 8-2 19-4 18 2 0 6-7 5-18 9-7 2-20 4-19 5 1 3 32 0 37 7 2 1 5 9-9 6l-27-4c-5 0 9 9 23 22 9 9-1 10-3 8-22-18-23-20-23-17-1 2 17 22 13 27-6 7-9-1-21-19l-4-7c-2-5-3-1-3-1 0 37-2 37-5 38-8 4-6-9-6-10l5-31q0-3-1-1" style="fill:#d9765b" transform="scale(1.33)"/><path d="M902 120c15-24-28-60-21-71 2-5 15 4 16 5 4 2 25 17 40 35 21 25 15 41 14 44-11 31-118 48-121 37-2-12 55-27 72-50Z" style="fill:#0861a6;stroke:#000;stroke-width:3.02px" transform="scale(1.33)"/><path d="M101 472c6 26 43 32 70 53 14 10-10 9-11 9-12 0-113-11-106-54 5-37 80-89 71-64-7 20-24 36-24 56Z" style="fill:#075ea6;stroke:#000;stroke-width:3.02px" transform="scale(1.33)"/><path d="M373 371c19 10 19 11 19 13 0 1 1 23-1 25 0 1-19 14-23 13-1 0-19-10-21-13-2-2-3-25 0-28l20-12q4 0 6 2" style="fill:#5d5594" transform="scale(1.33)"/><path d="m370 372 20 10v22c0 7-8 8-16 14-9 5-10-1-14-2l-9-6c-6-3-3-4-3-10 0-16-2-17 4-19l9-5c3-2 5-6 9-4" style="fill:#7c73e0" transform="scale(1.33)"/><path d="m261 264 11-9 12-7c4-2-3-7-3-9l22 1c7 0-2 7-10 17-5 6-3-3-5-4-1-1-18 10-20 11-56 39-62 99-63 99-6 5 8-64 56-99" style="fill:#161614" transform="scale(1.33)"/><path d="m705 545 8-9c3-5 3 4 3 5 0 2 2 3 23-9 53-33 64-84 66-84l-1 6c-22 65-74 88-82 92-7 4 0 6 1 9 1 2-1 0-19-2-6 0-2-3 1-8" style="fill:#181514" transform="scale(1.33)"/><path d="M367 80c17-25 44-43 44-43 9-6-1-7-1-9l22-1q2 0 0 4c-12 14-10 16-12 16q-1 2-1-5 0-5-12 4c-50 35-56 79-60 91-1 5-2 1-2 1 6-29 14-44 22-58" style="fill:#131413" transform="scale(1.33)"/><path d="m437 529 2-1c19-1 19-2 20-1 4 0-7 13-9 19-3 7-2-5-4-6s-55 36-120 13q-5-2-2-2l13 3c40 11 83-4 102-17q6-3-1-8" style="fill:#161513" transform="scale(1.33)"/><path d="M531 175s-5-1-6 1c-2 6 9 9 11 10 10 5 9 17 4 20-11 9-31-3-23-7q4-3 5-1c10 9 14 0 13-3-2-3-23-7-18-21 5-13 28-4 23 1-4 3-7 0-9 0" style="fill:#e9f9fa" transform="scale(1.33)"/><path d="M733 248q20 0 15 3-5 4 0 7c28 18 43 47 46 52 1 3 10 19 12 30 4 35-1-11-21-39-3-4-21-29-42-40-3-2-2 9-5 5l-10-17z" style="fill:#191814" transform="scale(1.33)"/><path d="m671 151 2 16c2 0 10-4 7 2-10 16-11 17-12 16l-8-19c-2-4 8 3 8-1 0-60-36-88-30-88a141 141 0 0 1 33 74" style="fill:#151513" transform="scale(1.33)"/><path d="M190 352c-7 40-3 40-2 59q0 4-2 1c-5-23-2-76 18-108 2-4 17-28 30-39 14-12-5 9-6 9-27 30-36 72-38 78" style="fill:#191918" transform="scale(1.33)"/><path d="M504 175q-4 0-3 2c-1 8 1 30-2 30-1 1-7 1-7-1 0-13 2-31-2-31-8-1-9 1-10-2q-1-5 3-5c28-1 29-1 29 2l-1 4z" style="fill:#f1fafb" transform="scale(1.33)"/><path d="M809 486c-2 5-17 30-41 49 0 1-4 4-4 2 0-1 57-45 62-120 1-11 0-12 2-12 1 0 1 31-9 58-4 12-5 12-10 23" style="fill:#1a1919" transform="scale(1.33)"/><path d="M331 139c-4 34 0 34-1 45q0 3-2-1c-13-94 61-149 35-120-8 10-14 22-15 24-5 11-11 20-17 52" style="fill:#151515" transform="scale(1.33)"/></svg>